<?xml version="1.0" encoding="utf-8"?>
<!-- Generator: Adobe Illustrator 18.1.1, SVG Export Plug-In . SVG Version: 6.00 Build 0)  -->
<!DOCTYPE svg PUBLIC "-//W3C//DTD SVG 1.1//EN" "http://www.w3.org/Graphics/SVG/1.1/DTD/svg11.dtd">
<svg version="1.1" id="Layer_1" xmlns="http://www.w3.org/2000/svg" xmlns:xlink="http://www.w3.org/1999/xlink" x="0px" y="0px"
	 viewBox="0 0 449.6 84.2" enable-background="new 0 0 449.6 84.2" xml:space="preserve">
<g>
	<g>
		<path fill="#FFFFFF" d="M255.6,33.4c-0.6-2.9-1.7-5.3-3.2-7.3c-1.8-2.3-4.3-3.9-6.6-5.1c-1.9-1-4.9-1.5-7.4-1.5
			c-3.3,0-5.9,1.3-7.3,2.2c-2.7,1.8-4.3,4.2-6.3,7.5c-1.1-2.5-2.5-4.6-3.7-6c-1.4-1.5-4.4-3.8-8.8-3.8c-5.4,0-8.6,1-11.2,3.3
			c-1.6,1.4-3,3.6-4.3,6.3v-8.3H183v51.8h15.1V43.4c0-3.1-0.1-5.4,0.6-7c0.9-2.2,3.3-4.1,7.5-4.1c3.7,0,5.5,1.6,6.4,4.1
			c0.6,1.6,0.7,4,0.7,7.4v28.8h14V43.8c0-2.5,0-5.2,0.7-7.1c1-2.6,2.6-4.6,6.7-4.6c3.6,0,5.4,1.4,6.4,4c0.5,1.3,0.6,3.2,0.6,5.3
			v31.2h14.5V41.8C256.1,38.1,256,35.3,255.6,33.4z"/>
	</g>
	<polygon fill="#FFFFFF" points="62.9,20.8 77.6,20.8 89,60.3 100.9,20.8 115.6,20.8 97.8,72.6 80.2,72.6 	"/>
	<g>
		<path fill="#FFFFFF" d="M327.2,60.5c2.1,2,5.1,3.1,9.1,3.1c2.8,0,5.3-0.7,7.3-2.1c2-1.4,3.3-2.9,3.8-4.5h12.4
			c-2,6.1-5,10.5-9.1,13.2c-4.1,2.6-9,4-14.9,4c-4,0-7.7-0.6-10.9-1.9c-3.2-1.3-6-3.1-8.2-5.5c-2.2-2.4-4-5.2-5.2-8.5
			c-1.2-3.3-1.8-6.9-1.8-10.9c0-3.8,0.6-7.4,1.9-10.7c1.3-3.3,3-6.2,5.3-8.6c2.3-2.4,5.1-4.3,8.3-5.7c3.2-1.4,6.8-2.1,10.6-2.1
			c4.4,0,8.2,0.8,11.4,2.5c3.2,1.7,5.9,3.9,8,6.8c2.1,2.8,3.6,6.1,4.5,9.7c0.9,3.6,1.3,7.4,1,11.4h-36.9
			C323.9,55.1,325.1,58.4,327.2,60.5z M343.1,33.5c-1.7-1.8-4.2-2.8-7.7-2.8c-2.2,0-4.1,0.4-5.6,1.1c-1.5,0.8-2.7,1.7-3.6,2.8
			c-0.9,1.1-1.5,2.3-1.9,3.6c-0.4,1.3-0.6,2.4-0.6,3.4h22.9C346,38.1,344.8,35.4,343.1,33.5z"/>
	</g>
	<rect x="0" y="0" fill="#FFFFFF" width="13.7" height="72.6"/>
	<path fill="#FFFFFF" d="M64.1,68c0-7.4,0-21.8,0-26.5c0-8.2-4.7-21.2-23.1-21.2c-18.5,0-22.8,15.6-22.8,18.2h12.7
		c0-4.4,4.5-7.3,10-7.3c5.5,0,9.5,4,9.5,9.6c-7.6,0-32.5,0.6-32.5,17.5c0,13.8,14.6,15.2,18,15.2c3.3,0,10,0.1,16.6-7.4
		c0,4.3,0,6.3,0,6.3h13.1C64.7,71.3,64.3,70.5,64.1,68z M32.1,59.9c-0.4-2.7,0.6-4.6,1.8-6c3.8-4.6,12.7-4.2,17.9-4.2
		C51.8,65.3,33.2,67.2,32.1,59.9z"/>
	<path fill="#FFFFFF" d="M160,68c0-7.4,0-21.8,0-26.5c0-8.2-4.7-21.2-23.1-21.2C118.4,20.4,114,36,114,38.6h12.7
		c0-4.4,4.5-7.3,10-7.3c5.5,0,9.5,4,9.5,9.6c-7.6,0-32.5,0.6-32.5,17.5c0,13.8,14.6,15.2,18,15.2c3.3,0,10,0.1,16.6-7.4
		c0,4.3,0,6.3,0,6.3h13C160.5,71.3,160.1,70.5,160,68z M128,59.9c-0.4-2.7,0.6-4.6,1.8-6c3.8-4.6,12.7-4.2,17.9-4.2
		C147.6,65.3,129.1,67.2,128,59.9z"/>
	<path fill="#FFFFFF" d="M306.5,68c0-7.4,0-21.8,0-26.5c0-8.2-4.7-21.2-23.1-21.2c-18.5,0-22.8,15.6-22.8,18.2h12.7
		c0-4.4,4.5-7.3,10-7.3c5.5,0,9.5,4,9.5,9.6c-7.6,0-32.5,0.6-32.5,17.5c0,13.8,14.6,15.2,18,15.2c3.3,0,10,0.1,16.6-7.4
		c0,4.3,0,6.3,0,6.3H308C307.1,71.3,306.7,70.5,306.5,68z M274.6,59.9c-0.4-2.7,0.6-4.6,1.8-6c3.8-4.6,12.7-4.2,17.9-4.2
		C294.2,65.3,275.7,67.2,274.6,59.9z"/>
</g>
<path fill="#FFFFFF" d="M449.6,50.7c0,18.5-14.2,33.5-31.6,33.5c-17.5,0-31.6-15-31.6-33.5C386.4,32.2,418,0,418,0
	S449.6,32.2,449.6,50.7"/>
<polygon fill="#0291C4" points="409,36.9 408.9,37 408.9,36.9 "/>
<polygon fill="#0291C4" points="436.4,41.9 436.4,45.1 399.6,45.1 399.6,41.9 399.6,41.9 408.9,37 409,36.9 427,36.9 427,37 
	427,36.9 436.3,41.9 "/>
<polygon fill="#0291C4" points="427,33.4 427,36.1 408.9,36.1 408.9,33.4 415.9,33.4 415.9,18.9 420.1,18.9 420.1,33.4 "/>
<path fill="#0291C4" d="M404.9,50.9c0,1-0.8,1.7-1.7,1.7c-1,0-1.7-0.8-1.7-1.7c0-1,1.7-2.6,1.7-2.6S404.9,50,404.9,50.9"/>
<path fill="#0291C4" d="M404.9,59.2c0,1-0.8,1.7-1.7,1.7c-1,0-1.7-0.8-1.7-1.7c0-1,1.7-2.6,1.7-2.6S404.9,58.2,404.9,59.2"/>
<path fill="#0291C4" d="M404.9,67.4c0,1-0.8,1.7-1.7,1.7c-1,0-1.7-0.8-1.7-1.7c0-1,1.7-2.6,1.7-2.6S404.9,66.5,404.9,67.4"/>
<path fill="#0291C4" d="M410.8,50.9c0,1-0.8,1.7-1.7,1.7c-1,0-1.7-0.8-1.7-1.7c0-1,1.7-2.6,1.7-2.6S410.8,50,410.8,50.9"/>
<path fill="#0291C4" d="M410.8,59.2c0,1-0.8,1.7-1.7,1.7c-1,0-1.7-0.8-1.7-1.7c0-1,1.7-2.6,1.7-2.6S410.8,58.2,410.8,59.2"/>
<path fill="#0291C4" d="M410.8,67.4c0,1-0.8,1.7-1.7,1.7c-1,0-1.7-0.8-1.7-1.7c0-1,1.7-2.6,1.7-2.6S410.8,66.5,410.8,67.4"/>
<path fill="#0291C4" d="M416.8,50.9c0,1-0.8,1.7-1.7,1.7c-1,0-1.7-0.8-1.7-1.7c0-1,1.7-2.6,1.7-2.6S416.8,50,416.8,50.9"/>
<path fill="#0291C4" d="M416.8,59.2c0,1-0.8,1.7-1.7,1.7c-1,0-1.7-0.8-1.7-1.7c0-1,1.7-2.6,1.7-2.6S416.8,58.2,416.8,59.2"/>
<path fill="#0291C4" d="M416.8,67.4c0,1-0.8,1.7-1.7,1.7c-1,0-1.7-0.8-1.7-1.7c0-1,1.7-2.6,1.7-2.6S416.8,66.5,416.8,67.4"/>
<path fill="#0291C4" d="M422.7,50.9c0,1-0.8,1.7-1.7,1.7c-1,0-1.7-0.8-1.7-1.7c0-1,1.7-2.6,1.7-2.6S422.7,50,422.7,50.9"/>
<path fill="#0291C4" d="M422.7,59.2c0,1-0.8,1.7-1.7,1.7c-1,0-1.7-0.8-1.7-1.7c0-1,1.7-2.6,1.7-2.6S422.7,58.2,422.7,59.2"/>
<path fill="#0291C4" d="M422.7,67.4c0,1-0.8,1.7-1.7,1.7c-1,0-1.7-0.8-1.7-1.7c0-1,1.7-2.6,1.7-2.6S422.7,66.5,422.7,67.4"/>
<path fill="#0291C4" d="M428.7,50.9c0,1-0.8,1.7-1.7,1.7c-1,0-1.7-0.8-1.7-1.7c0-1,1.7-2.6,1.7-2.6S428.7,50,428.7,50.9"/>
<path fill="#0291C4" d="M428.7,59.2c0,1-0.8,1.7-1.7,1.7c-1,0-1.7-0.8-1.7-1.7c0-1,1.7-2.6,1.7-2.6S428.7,58.2,428.7,59.2"/>
<path fill="#0291C4" d="M428.7,67.4c0,1-0.8,1.7-1.7,1.7c-1,0-1.7-0.8-1.7-1.7c0-1,1.7-2.6,1.7-2.6S428.7,66.5,428.7,67.4"/>
<path fill="#0291C4" d="M434.6,50.9c0,1-0.8,1.7-1.7,1.7c-1,0-1.7-0.8-1.7-1.7c0-1,1.7-2.6,1.7-2.6S434.6,50,434.6,50.9"/>
<path fill="#0291C4" d="M434.6,59.2c0,1-0.8,1.7-1.7,1.7c-1,0-1.7-0.8-1.7-1.7c0-1,1.7-2.6,1.7-2.6S434.6,58.2,434.6,59.2"/>
<path fill="#0291C4" d="M434.6,67.4c0,1-0.8,1.7-1.7,1.7c-1,0-1.7-0.8-1.7-1.7c0-1,1.7-2.6,1.7-2.6S434.6,66.5,434.6,67.4"/>
</svg>
